{
	"asset":{
		"generator":"Khronos glTF Blender I/O v4.2.60",
		"version":"2.0"
	},
	"scene":0,
	"scenes":[
		{
			"name":"Scene",
			"nodes":[
				0
			]
		}
	],
	"nodes":[
		{
			"mesh":0,
			"name":"model",
			"rotation":[
				0.7071068286895752,
				0,
				0,
				0.7071068286895752
			],
			"scale":[
				3.930593252182007,
				3.930593252182007,
				3.930593252182007
			],
			"translation":[
				-0.08287328481674194,
				3.5266504287719727,
				0
			]
		}
	],
	"materials":[
		{
			"doubleSided":true,
			"name":"t",
			"normalTexture":{
				"index":0
			},
			"pbrMetallicRoughness":{
				"baseColorTexture":{
					"index":1
				},
				"metallicRoughnessTexture":{
					"index":2
				}
			}
		}
	],
	"meshes":[
		{
			"name":"model",
			"primitives":[
				{
					"attributes":{
						"POSITION":0,
						"NORMAL":1,
						"TEXCOORD_0":2
					},
					"indices":3,
					"material":0
				}
			]
		}
	],
	"textures":[
		{
			"sampler":0,
			"source":0
		},
		{
			"sampler":0,
			"source":1
		},
		{
			"sampler":0,
			"source":2
		}
	],
	"images":[
		{
			"mimeType":"image/png",
			"name":"texture_normal",
			"uri":"texture_normal.png"
		},
		{
			"mimeType":"image/png",
			"name":"texture_diffuse",
			"uri":"texture_diffuse.png"
		},
		{
			"mimeType":"image/png",
			"name":"texture_metallic-texture_roughness",
			"uri":"texture_metallic-texture_roughness.png"
		}
	],
	"accessors":[
		{
			"bufferView":0,
			"componentType":5126,
			"count":19679,
			"max":[
				0.3308750092983246,
				0.19041399657726288,
				0.9500659704208374
			],
			"min":[
				-0.3318359851837158,
				-0.19615599513053894,
				-0.9517790079116821
			],
			"type":"VEC3"
		},
		{
			"bufferView":1,
			"componentType":5126,
			"count":19679,
			"type":"VEC3"
		},
		{
			"bufferView":2,
			"componentType":5126,
			"count":19679,
			"type":"VEC2"
		},
		{
			"bufferView":3,
			"componentType":5123,
			"count":99708,
			"type":"SCALAR"
		}
	],
	"bufferViews":[
		{
			"buffer":0,
			"byteLength":236148,
			"byteOffset":0,
			"target":34962
		},
		{
			"buffer":0,
			"byteLength":236148,
			"byteOffset":236148,
			"target":34962
		},
		{
			"buffer":0,
			"byteLength":157432,
			"byteOffset":472296,
			"target":34962
		},
		{
			"buffer":0,
			"byteLength":199416,
			"byteOffset":629728,
			"target":34963
		}
	],
	"samplers":[
		{
			"magFilter":9729,
			"minFilter":9987
		}
	],
	"buffers":[
		{
			"byteLength":829144,
			"uri":"villaroel.bin"
		}
	]
}
